<?xml version="1.0" standalone="no"?>
<!DOCTYPE svg PUBLIC "-//W3C//DTD SVG 20010904//EN"
 "http://www.w3.org/TR/2001/REC-SVG-20010904/DTD/svg10.dtd">
<svg version="1.0" xmlns="http://www.w3.org/2000/svg"
 width="300.000000pt" height="304.000000pt" viewBox="0 0 300.000000 304.000000"
 preserveAspectRatio="xMidYMid meet">
<metadata>
Created by potrace 1.10, written by Peter Selinger 2001-2011
</metadata>
<g transform="translate(0.000000,304.000000) scale(0.100000,-0.100000)"
fill="#000000" stroke="none">
<path d="M1265 3023 c-16 -2 -66 -13 -110 -24 -280 -71 -484 -188 -696 -399
-218 -216 -344 -440 -420 -750 -20 -84 -23 -120 -24 -305 0 -245 5 -303 40
-429 70 -260 184 -461 370 -655 228 -237 553 -405 849 -439 77 -9 394 -9 461
0 204 26 452 125 640 256 90 62 275 240 320 308 17 24 33 44 38 44 4 0 7 5 7
12 0 6 6 19 14 27 13 14 38 58 100 176 12 22 27 58 35 80 7 22 19 54 26 70 7
17 18 50 25 75 7 25 18 65 25 90 7 25 13 52 13 60 0 8 2 40 5 70 5 47 3 43
-14 -30 -87 -366 -220 -609 -453 -827 -222 -208 -481 -329 -831 -389 -132 -23
-213 -22 -370 3 -361 60 -627 194 -863 437 -219 225 -351 499 -403 831 -29
183 -33 233 -21 290 6 27 20 102 32 167 96 549 472 989 1005 1175 74 26 233
63 272 63 13 0 23 5 23 10 0 10 -37 11 -95 3z"/>
<path d="M1690 3021 c14 -4 54 -11 90 -14 37 -3 54 -3 40 2 -14 4 -54 10 -90
14 -36 3 -54 2 -40 -2z"/>
<path d="M1260 2943 c-569 -100 -1028 -551 -1150 -1131 -27 -125 -36 -338 -21
-467 50 -423 271 -791 613 -1018 274 -183 528 -255 858 -244 227 8 363 40 560
133 400 189 683 549 781 994 20 89 23 134 24 300 0 168 -3 209 -23 299 -73
327 -246 619 -481 815 -206 172 -432 278 -680 320 -119 20 -364 20 -481 -1z
m530 -92 c264 -61 490 -190 681 -388 177 -184 297 -413 355 -683 26 -119 26
-420 1 -538 -107 -486 -425 -851 -882 -1012 -256 -90 -588 -93 -851 -9 -543
174 -908 655 -931 1229 -13 332 79 635 272 895 60 81 195 216 275 275 168 125
387 216 599 250 95 15 384 4 481 -19z m-840 -45 c0 -8 -82 -47 -88 -42 -3 3
15 15 39 26 48 22 49 22 49 16z m-110 -61 c-7 -8 -16 -15 -21 -15 -10 0 -119
-74 -148 -101 -11 -11 -21 -18 -21 -16 0 2 -29 -23 -65 -56 -221 -204 -379
-500 -430 -807 -27 -164 -17 -416 23 -571 59 -227 143 -394 282 -561 203 -244
500 -413 817 -467 100 -16 360 -21 433 -8 14 3 53 10 87 16 229 42 484 174
655 340 32 30 60 53 63 50 18 -19 -228 -218 -350 -282 -255 -134 -564 -192
-846 -157 -316 38 -614 190 -840 428 -405 425 -494 1075 -222 1617 24 49 48
92 51 95 4 3 13 17 21 32 48 94 242 304 341 368 12 8 29 21 36 28 8 7 14 10
14 5 0 -4 4 -3 8 3 8 13 103 74 116 74 5 0 3 -7 -4 -15z m1734 -2140 c-20 -25
-41 -45 -46 -45 -5 0 1 10 13 23 11 12 28 32 36 45 9 12 20 22 25 22 5 0 -7
-20 -28 -45z"/>
<path d="M1375 2824 c-280 -30 -558 -161 -765 -360 -226 -218 -357 -498 -394
-841 l-4 -43 43 0 c24 0 49 -2 57 -5 8 -3 19 10 30 35 9 22 29 47 45 56 l28
16 0 116 c0 107 -2 118 -23 139 -29 29 -28 58 3 88 27 28 33 29 70 15 36 -14
49 -53 30 -91 -9 -16 -22 -29 -30 -29 -12 0 -15 -21 -15 -120 0 -97 3 -120 14
-120 8 0 20 -2 28 -5 10 -4 12 13 10 85 l-3 90 80 87 81 86 0 72 c0 72 0 72
43 112 23 21 48 51 54 66 14 30 34 35 52 13 14 -17 -1 -56 -22 -56 -7 0 -30
-17 -50 -38 -35 -36 -37 -41 -37 -106 l0 -69 -79 -86 -79 -87 -3 -99 c-3 -83
-1 -104 14 -125 22 -32 22 -77 -1 -115 -14 -23 -18 -44 -14 -90 l4 -60 118
-135 c101 -115 117 -137 105 -149 -12 -12 -18 -9 -42 20 -15 18 -72 84 -126
146 -95 110 -97 114 -97 163 0 50 -4 55 -34 44 -13 -5 -16 -26 -16 -130 0 -73
4 -124 10 -124 16 0 50 -43 50 -62 0 -25 -44 -68 -70 -68 -27 0 -70 43 -70 70
0 11 10 30 21 41 20 20 22 32 21 145 l0 124 -32 27 c-17 14 -36 37 -41 50 -8
21 -15 23 -69 23 -47 0 -60 3 -60 15 0 8 -4 15 -10 15 -13 0 -13 -17 -1 -24 5
-4 12 -45 16 -94 23 -317 123 -569 319 -804 111 -133 314 -274 500 -347 155
-61 282 -84 461 -84 232 0 387 34 580 128 320 155 559 436 663 780 41 134 55
233 55 395 0 222 -43 404 -144 606 -173 346 -527 614 -898 679 -87 16 -305 26
-376 19z m345 -50 c126 -22 265 -68 255 -84 -3 -5 -28 -8 -56 -8 -38 -1 -68 7
-112 30 l-60 30 -201 0 c-114 0 -216 -5 -236 -11 -19 -6 -60 -11 -90 -11 -35
0 -64 -6 -79 -16 -20 -15 -24 -15 -38 -1 -14 13 -13 16 5 26 19 10 165 45 227
54 67 10 305 4 385 -9z m83 -94 c46 -29 52 -30 167 -30 100 0 120 -3 120 -15
0 -13 -21 -15 -126 -15 -123 0 -128 1 -176 30 l-48 30 -203 0 c-156 -1 -208
-4 -227 -15 -15 -8 -53 -14 -92 -15 -57 0 -69 3 -78 20 -10 19 -8 20 72 21 46
0 92 4 103 9 11 5 115 9 231 9 l210 1 47 -30z m-711 -17 c10 -9 18 -24 18 -34
0 -23 -44 -53 -66 -45 -10 4 -35 -5 -60 -21 -36 -23 -44 -33 -44 -58 0 -80
-88 -110 -137 -46 -19 24 -15 69 7 91 26 26 66 35 85 20 12 -10 24 -6 65 20
28 18 50 40 50 49 0 40 49 54 82 24z m-122 -1 c0 -5 -13 -21 -29 -36 -25 -24
-34 -27 -63 -21 -33 8 -33 8 -8 17 13 5 27 13 30 18 5 9 47 28 63 29 4 1 7 -3
7 -7z m408 -21 c10 -6 9 -11 -4 -22 -11 -9 -46 -14 -101 -15 -69 -2 -91 -6
-114 -23 -40 -29 -51 -26 -31 9 16 28 21 30 82 31 36 0 81 7 100 14 42 16 51
17 68 6z m396 -20 l20 -21 -47 0 c-48 0 -77 16 -77 41 0 19 80 4 104 -20z
m-277 -11 c20 -12 35 -15 39 -9 24 39 109 27 120 -18 6 -23 10 -24 75 -22 60
2 72 -1 94 -21 24 -23 28 -23 235 -21 205 1 210 1 210 -19 0 -19 -6 -20 -213
-20 l-214 0 -23 25 c-20 22 -32 25 -88 25 -56 0 -66 -3 -84 -25 -23 -29 -71
-34 -106 -9 -20 14 -24 14 -38 0 -29 -29 -104 -11 -104 25 0 5 -43 9 -96 9
-93 0 -98 -1 -131 -30 -31 -28 -40 -30 -108 -30 -68 0 -75 2 -75 20 0 18 7 20
71 20 65 0 74 3 105 30 33 28 36 29 129 27 52 -2 95 1 95 6 0 13 48 57 62 57
7 0 27 -9 45 -20z m683 -16 c70 -47 70 -47 -170 -44 -122 1 -148 4 -162 18
-17 16 -11 17 105 20 84 2 128 7 142 17 29 20 40 18 85 -11z m-1416 -73 c-4
-17 0 -41 10 -59 35 -68 103 -82 158 -33 31 27 36 28 58 15 14 -7 41 -13 60
-14 33 0 31 -1 -35 -36 -39 -20 -91 -52 -116 -70 -46 -33 -47 -34 -70 -16 -13
10 -32 22 -42 25 -10 4 -17 12 -16 19 4 32 -3 51 -26 73 -34 35 -67 32 -99 -7
-15 -18 -51 -64 -82 -101 -35 -43 -58 -81 -61 -103 -7 -44 -15 -48 -43 -24
l-23 20 39 58 c36 54 224 252 239 252 3 0 13 7 21 15 24 23 34 18 28 -14z
m1055 -52 c28 -20 42 -23 128 -22 54 1 101 -1 106 -4 4 -2 -1 -17 -12 -31 -35
-49 -31 -94 10 -133 23 -22 41 -29 70 -29 36 0 39 -2 29 -19 -5 -11 -10 -29
-10 -40 0 -30 58 -91 85 -91 46 0 55 -10 55 -59 0 -51 10 -70 71 -130 39 -38
44 -61 14 -61 -8 0 -22 -11 -31 -25 -9 -14 -19 -25 -23 -25 -3 0 -17 30 -29
67 -77 219 -269 417 -496 512 -41 17 -81 31 -88 31 -7 0 -30 5 -52 11 l-39 11
33 21 c68 45 76 48 111 43 20 -2 51 -14 68 -27z m-440 7 c17 -20 2 -23 -109
-25 l-95 -1 24 20 c19 16 38 20 96 20 50 0 76 -4 84 -14z m1011 -53 c71 -73
152 -174 171 -217 9 -20 9 -29 -1 -41 -13 -16 -31 -20 -29 -7 5 32 -17 63
-127 175 -102 105 -123 131 -113 143 6 8 16 14 22 14 6 0 40 -30 77 -67z
m-825 27 c8 -13 -19 -18 -45 -8 -18 7 -21 11 -11 17 14 9 48 3 56 -9z m658 -7
c4 -3 2 -12 -4 -19 -8 -10 -15 -11 -30 -1 -10 6 -19 15 -19 19 0 10 44 11 53
1z m-1501 -40 c31 -28 17 -73 -23 -73 -10 0 -42 -26 -73 -57 l-56 -58 0 -92
c0 -86 -1 -93 -20 -93 -19 0 -20 7 -20 95 l0 95 65 71 c36 39 65 79 65 89 0
11 8 24 18 29 23 14 23 14 44 -6z m1448 -3 c54 -54 -5 -146 -77 -119 -54 20
-68 68 -32 113 26 33 79 36 109 6z m-612 -5 c132 -21 194 -40 282 -86 213
-111 359 -287 422 -506 18 -65 22 -103 22 -223 0 -129 -3 -154 -27 -225 -34
-104 -83 -185 -160 -263 -52 -54 -136 -122 -149 -122 -2 0 -2 15 -1 33 2 17
-2 56 -10 85 -16 59 -8 66 23 21 28 -39 34 -32 20 22 -17 63 -53 131 -121 231
-68 99 -98 161 -99 199 0 31 15 39 73 39 51 0 69 -10 57 -30 -17 -27 -11 -108
11 -156 12 -25 37 -56 57 -69 38 -26 53 -26 33 -1 -14 16 -53 138 -47 144 3 2
12 -13 21 -32 10 -20 20 -38 24 -40 3 -2 6 31 6 75 0 94 10 108 85 120 60 9
79 24 116 86 27 47 27 90 -2 114 -8 6 -14 26 -14 45 0 30 -21 64 -40 64 -5 0
-39 28 -77 63 -37 34 -96 82 -130 106 -35 24 -81 68 -104 97 -47 61 -115 110
-174 125 -22 5 -62 17 -88 25 -88 28 -155 33 -286 24 -237 -17 -389 -103 -466
-266 -48 -101 -49 -248 -2 -341 32 -62 103 -128 153 -142 59 -17 61 -14 15 25
-65 56 -86 104 -86 199 0 86 16 129 70 193 50 59 173 98 273 86 49 -6 52 -8
52 -34 0 -55 -141 -137 -251 -147 -32 -3 -59 -9 -59 -13 0 -4 19 -20 42 -36
39 -27 47 -29 137 -28 77 0 106 4 145 22 27 12 47 25 44 27 -2 3 -36 -4 -74
-15 -38 -11 -80 -20 -94 -20 -32 0 -90 37 -70 44 8 2 33 10 55 17 22 6 69 31
105 54 36 24 81 47 100 51 l35 8 -34 6 c-29 4 -36 10 -43 37 -11 43 -43 62
-111 67 -115 8 -239 -42 -298 -120 -37 -49 -39 -51 -39 -27 0 24 119 133 153
140 15 3 27 9 27 14 0 5 13 9 28 9 16 0 32 3 36 8 21 21 173 17 226 -6 49 -21
56 -20 115 19 64 42 72 56 53 90 l-17 29 27 -6 c51 -13 72 -24 72 -38 0 -15
21 -26 50 -26 10 0 58 -40 107 -88 48 -49 97 -94 108 -100 33 -17 -167 184
-206 207 -19 12 -28 21 -21 21 32 0 95 -45 154 -110 34 -39 95 -92 133 -119
39 -27 88 -68 110 -91 22 -23 57 -50 78 -61 41 -21 51 -45 15 -34 -25 8 -24 8
-56 6 -38 -2 -21 -23 44 -56 42 -21 60 -36 62 -52 3 -21 0 -23 -48 -23 -50 0
-98 15 -133 42 -22 17 -33 98 -18 127 9 16 6 24 -20 45 -17 15 -52 38 -77 53
-26 15 -72 49 -101 75 -57 50 -91 66 -52 24 l23 -24 -48 24 c-72 37 -162 31
-178 -11 -4 -13 -1 -15 14 -10 14 4 20 2 20 -9 0 -13 4 -13 37 0 69 29 130 -2
158 -83 12 -33 14 -34 16 -13 1 14 1 31 0 38 -4 25 38 5 130 -63 39 -29 41
-32 43 -93 2 -44 9 -68 22 -83 11 -12 17 -32 16 -50 -1 -18 6 -41 17 -56 l20
-25 -29 -37 c-16 -20 -32 -51 -36 -68 -4 -18 -13 -38 -22 -45 -13 -12 -14 -7
-8 39 6 45 4 54 -15 71 -45 43 -141 37 -171 -11 -44 -68 -42 -150 8 -264 35
-78 54 -163 61 -267 6 -101 1 -138 -19 -118 -19 19 -76 14 -98 -8 -11 -11 -20
-31 -20 -45 0 -35 -27 -32 -35 4 -9 42 -36 62 -86 63 -24 0 -116 1 -203 2
l-160 2 -33 -29 -34 -30 -29 28 c-22 21 -38 27 -70 27 -23 -1 -51 5 -61 11
-28 17 -65 -7 -114 -72 l-39 -53 -28 33 c-74 89 -86 99 -112 99 -25 0 -26 2
-26 53 0 69 -21 101 -62 93 -24 -5 -30 -2 -39 21 -5 14 -21 39 -34 55 -27 32
-35 98 -12 98 6 0 59 -54 115 -121 116 -134 141 -152 172 -124 11 10 20 24 20
31 0 12 -115 157 -181 228 -32 35 -55 74 -47 81 3 3 19 -2 36 -12 30 -17 32
-17 61 5 17 12 32 22 34 22 3 0 10 -21 17 -47 33 -121 123 -274 188 -318 l37
-26 21 24 c28 33 51 141 34 162 -10 12 -6 22 25 57 20 24 50 71 67 105 24 50
29 69 23 101 -6 40 35 274 57 318 7 16 22 23 57 27 25 3 47 4 49 3 1 -2 -4
-16 -13 -32 -30 -59 -14 -165 52 -332 26 -65 52 -142 59 -172 7 -30 13 -44 13
-29 1 32 -21 107 -70 236 -41 110 -59 196 -52 255 4 32 13 42 54 69 47 30 89
72 89 90 0 12 -32 -1 -56 -23 -29 -26 -106 -48 -165 -48 -56 0 -55 2 -89 -175
-12 -64 -33 -134 -50 -167 -31 -62 -27 -73 10 -33 34 36 41 31 24 -17 -25 -72
-60 -122 -135 -193 l-73 -68 41 6 c23 4 49 10 58 13 16 6 16 5 0 -27 -10 -18
-18 -53 -19 -76 0 -24 -4 -43 -8 -43 -14 0 -98 114 -132 180 -75 143 -83 197
-79 515 1 44 1 125 0 180 -1 82 3 110 22 157 58 149 206 272 376 314 72 18
307 17 423 -1z m755 -13 c7 -16 51 -66 100 -111 l87 -83 0 -77 0 -77 55 -54
55 -54 0 -121 0 -120 35 -28 c36 -29 57 -81 48 -119 -9 -34 -41 -76 -63 -83
-19 -6 -20 -16 -20 -139 0 -120 2 -135 20 -151 55 -50 -13 -142 -75 -101 -33
22 -42 60 -21 91 9 14 23 25 31 25 23 0 22 255 -1 264 -35 14 -42 7 -37 -37 5
-43 5 -43 -127 -195 -106 -122 -135 -150 -146 -141 -15 12 -18 8 164 217 69
79 72 86 72 133 0 29 -7 60 -16 75 -9 13 -17 42 -17 64 0 22 8 51 17 64 12 19
16 49 16 113 l0 88 -85 85 -85 85 0 59 c0 73 -19 101 -56 84 -52 -24 -101 32
-76 87 25 53 106 35 119 -26 3 -16 14 -34 24 -40 16 -8 19 -22 19 -77 l0 -67
91 -90 90 -90 -3 -83 c-2 -65 0 -81 10 -77 8 3 20 5 28 5 11 0 14 22 14 113
l0 113 -60 59 -60 59 0 77 0 77 -81 76 c-58 55 -86 75 -99 71 -21 -7 -50 19
-50 44 0 47 64 57 83 13z m-935 -77 c35 -8 80 -24 100 -34 l37 -19 -26 -10
c-15 -6 -43 -25 -63 -43 -45 -39 -57 -32 -26 14 17 25 29 33 44 30 41 -9 -7
17 -62 33 -56 16 -220 22 -231 7 -3 -4 -19 -9 -36 -10 -16 -1 -31 -7 -33 -13
-2 -5 -7 -8 -10 -6 -4 2 -8 -12 -10 -31 -3 -42 -8 -53 -28 -53 -8 0 -14 10
-14 25 0 39 -18 29 -22 -12 -3 -39 -28 -60 -28 -23 0 13 -5 20 -12 17 -7 -2
-13 -19 -13 -37 0 -18 -6 -35 -12 -37 -8 -3 -13 4 -13 16 0 12 -5 21 -11 21
-8 0 -10 -12 -6 -35 5 -33 -5 -47 -18 -25 -14 22 -23 8 -15 -21 8 -28 7 -31
-11 -26 -15 4 -19 2 -15 -9 3 -8 9 -21 12 -29 4 -10 0 -15 -10 -15 -19 0 -20
-5 -6 -31 7 -12 7 -19 1 -19 -12 0 -7 -67 9 -119 13 -46 6 -50 -17 -9 -13 25
-18 55 -18 123 0 77 4 98 27 147 87 187 314 285 536 233z m-668 -35 c0 -5 -13
-24 -29 -42 -43 -50 -51 -71 -51 -132 0 -50 -4 -60 -37 -97 -21 -23 -39 -36
-41 -30 -2 6 10 24 27 40 30 28 31 33 31 108 0 76 1 79 37 121 35 39 63 54 63
32z m487 -24 c-28 -45 -47 -53 -47 -22 0 41 11 56 41 56 l28 0 -22 -34z m74
16 c-12 -23 -50 -57 -56 -50 -3 3 0 19 6 36 8 24 17 32 35 32 21 0 23 -3 15
-18z m62 9 c16 -6 13 -11 -22 -39 -43 -35 -51 -30 -26 18 16 32 19 33 48 21z
m-193 -5 c0 -15 -32 -76 -40 -76 -6 0 -10 15 -10 34 0 24 5 36 18 39 25 7 32
7 32 3z m263 -14 c11 -5 -53 -61 -71 -62 -8 0 -5 13 10 39 21 37 30 40 61 23z
m985 -59 c24 -24 28 -37 32 -106 3 -43 2 -81 -2 -83 -13 -8 -28 35 -28 83 0
30 -7 60 -20 81 -34 56 -25 68 18 25z m-1928 -54 c0 -26 -3 -30 -22 -27 -28 4
-34 30 -13 52 22 21 35 12 35 -25z m2134 15 c11 -4 16 -19 16 -45 0 -32 -3
-39 -20 -39 -17 0 -20 7 -20 45 0 48 0 48 24 39z m-2188 -55 c4 -7 -4 -20 -17
-30 -29 -22 -32 -19 -20 15 11 28 25 33 37 15z m2197 -50 c22 22 38 11 61 -41
32 -74 39 -107 25 -124 -17 -21 -39 -17 -39 7 0 29 -17 58 -66 111 -49 52 -58
77 -18 52 19 -13 28 -14 37 -5z m-1913 -143 c0 -18 3 -49 7 -67 6 -33 5 -33
-13 -18 -33 29 -59 31 -87 8 -15 -11 -27 -17 -27 -12 0 13 100 123 111 123 5
0 9 -15 9 -34z m-350 -97 c0 -82 -1 -89 -20 -89 -18 0 -20 7 -20 83 0 79 11
114 32 101 4 -3 8 -45 8 -95z m2380 -19 c0 -63 -2 -70 -20 -70 -18 0 -20 7
-20 70 0 63 2 70 20 70 18 0 20 -7 20 -70z m-2052 -1 c3 -29 -18 -44 -49 -34
-22 7 -26 50 -6 59 28 12 52 1 55 -25z m1747 -4 c0 -27 -3 -30 -30 -30 -21 0
-31 5 -33 18 -5 25 17 49 42 45 16 -2 21 -10 21 -33z m-1712 -58 c-5 -36 -6
-37 -25 -21 -18 17 -18 18 4 41 12 12 23 22 24 20 2 -2 1 -20 -3 -40z m-103
-2 c0 -7 -7 -15 -15 -19 -12 -4 -15 1 -13 24 2 22 5 27 15 18 7 -6 13 -16 13
-23z m-278 -25 c9 0 24 7 33 16 34 35 23 4 -17 -45 -34 -41 -47 -51 -68 -49
-23 3 -25 6 -22 48 4 70 9 77 35 51 13 -11 31 -21 39 -21z m1791 0 c43 0 48
-11 13 -30 -34 -18 -91 -5 -116 27 -30 38 -25 44 23 23 23 -11 59 -20 80 -20z
m639 -36 c10 -56 10 -222 -1 -228 -4 -3 -16 3 -26 14 -15 17 -16 24 -7 46 26
55 8 134 -41 185 l-25 26 46 -2 c46 -2 47 -2 54 -41z m-2087 15 c9 -28 -16
-53 -44 -44 -20 6 -29 43 -14 58 15 15 52 6 58 -14z m1756 5 c9 -11 10 -20 2
-32 -24 -39 -82 -15 -68 28 8 24 47 27 66 4z m-1767 -107 c28 -21 17 -52 -19
-52 -33 0 -45 25 -25 50 15 18 21 19 44 2z m1750 7 c20 -8 21 -48 2 -63 -33
-28 -74 27 -44 57 14 14 20 14 42 6z m-637 -139 c82 -156 93 -185 104 -250 13
-83 5 -163 -23 -227 -24 -57 -39 -63 -27 -10 23 100 2 253 -55 400 -20 51 -39
114 -41 140 -5 40 -4 43 5 22 6 -14 23 -47 37 -75z m-1074 46 c3 -11 3 -22 0
-25 -9 -8 -35 23 -28 34 10 16 22 12 28 -9z m-377 -12 c3 -6 -5 -21 -20 -34
-23 -20 -26 -30 -26 -86 -1 -53 -3 -61 -12 -44 -6 11 -14 55 -16 97 l-5 78 36
0 c20 0 39 -5 43 -11z m2098 -25 c9 -8 16 -19 16 -24 0 -9 -28 -40 -36 -40
-17 0 -44 23 -44 38 0 38 37 53 64 26z m-1749 -24 c0 -20 -6 -26 -28 -28 -29
-4 -44 16 -33 44 4 10 15 14 33 12 22 -2 28 -8 28 -28z m-324 -130 c-5 -93 -9
-115 -21 -115 -22 0 -32 222 -11 243 29 29 38 -6 32 -128z m2376 128 c5 -7 7
-66 5 -130 -3 -107 -5 -118 -22 -118 -17 0 -19 11 -22 118 -3 108 2 142 22
142 4 0 12 -6 17 -12z m-367 -49 c18 -14 38 -20 54 -17 l25 5 -21 -30 c-12
-17 -47 -58 -76 -91 -78 -87 -112 -136 -112 -161 0 -30 33 -58 59 -50 11 3 70
63 132 133 62 70 116 129 121 130 4 2 8 -16 8 -41 0 -31 -6 -49 -20 -62 -10
-9 -24 -33 -30 -51 -13 -38 -17 -40 -39 -19 -14 11 -21 12 -41 2 -22 -11 -26
-21 -30 -77 l-5 -65 -108 -5 c-107 -5 -109 -5 -138 -37 -16 -18 -32 -33 -36
-33 -5 1 -23 13 -41 29 l-32 28 61 53 c102 89 168 191 213 328 10 28 20 52 22
52 3 0 18 -10 34 -21z m-2010 -260 c0 -18 12 -42 31 -64 24 -27 29 -39 20 -48
-18 -18 -13 -42 15 -73 14 -16 52 -77 86 -137 42 -75 69 -112 89 -123 29 -14
38 -37 19 -49 -10 -6 -54 39 -117 123 -51 67 -165 294 -186 368 l-14 52 28
-10 c23 -8 29 -16 29 -39z m270 -99 c0 -83 -1 -90 -20 -90 -19 0 -20 7 -20 90
0 83 1 90 20 90 19 0 20 -7 20 -90z m1840 0 c0 -83 -1 -90 -20 -90 -19 0 -20
7 -20 90 0 83 1 90 20 90 19 0 20 -7 20 -90z m65 -55 c-18 -27 -44 -70 -58
-95 -14 -25 -34 -56 -44 -69 l-20 -24 -26 23 -27 24 37 38 c20 21 42 38 48 38
6 0 21 9 33 20 19 18 22 32 22 95 l0 75 34 -37 34 -37 -33 -51z m-1942 -57
c21 -15 27 -28 27 -56 l-1 -37 -22 39 c-12 21 -41 68 -65 105 l-43 66 33 27
33 27 6 -76 c5 -67 8 -78 32 -95z m2100 132 c-3 -10 -11 -24 -18 -30 -22 -18
-29 8 -9 31 22 24 34 24 27 -1z m-763 -49 c0 -22 -5 -30 -24 -33 -23 -5 -23
-4 -8 33 17 43 32 43 32 0z m-1365 -149 c59 -108 73 -152 48 -152 -4 0 -37 53
-73 118 -35 64 -78 130 -94 146 -29 27 -30 29 -11 42 17 13 22 12 41 -8 13
-13 53 -78 89 -146z m2075 138 c0 -11 -7 -20 -15 -20 -8 0 -48 -57 -92 -130
-69 -117 -103 -155 -103 -116 0 8 36 76 80 150 69 116 84 136 105 136 18 0 25
-5 25 -20z m-1879 -117 c28 -43 55 -82 59 -86 4 -5 32 30 61 77 42 67 59 86
77 86 22 0 22 0 22 -175 l0 -175 -36 0 -37 0 6 100 c3 55 3 100 2 100 -2 0
-23 -31 -46 -70 -22 -38 -45 -68 -49 -65 -5 3 -26 36 -47 73 l-38 67 -3 -34
c-2 -19 -2 -65 0 -103 l3 -68 -37 0 -37 0 2 175 c2 173 2 175 24 175 17 0 35
-20 74 -77z m1627 42 c-23 -34 -24 -35 -91 -35 -67 0 -68 0 -65 -26 3 -22 13
-29 72 -48 37 -13 72 -29 77 -37 5 -8 9 -41 9 -75 0 -88 -7 -92 -158 -96 -67
-2 -122 -1 -122 2 0 3 11 18 23 34 23 28 26 29 105 27 l82 -2 0 39 0 39 -62
13 c-82 18 -98 35 -98 107 0 86 10 93 142 93 l108 0 -22 -35z m-1283 -25 c16
-27 32 -50 35 -50 3 0 19 23 35 50 27 46 32 50 68 50 28 0 36 -3 31 -12 -4 -7
-29 -45 -56 -85 -46 -69 -48 -75 -48 -141 l0 -70 -32 2 -33 2 -1 69 c-1 66 -3
75 -52 153 l-51 82 37 0 c35 0 40 -4 67 -50z m415 15 c0 -34 -1 -35 -40 -35
l-40 0 0 -121 0 -120 -32 3 -33 3 0 118 0 117 -42 0 c-41 0 -43 2 -43 28 0 16
3 32 7 35 3 4 55 7 115 7 l108 0 0 -35z m98 -20 l-3 -55 58 0 57 0 0 55 c0 54
0 55 30 55 l30 0 0 -156 0 -155 -32 3 -32 3 3 68 2 67 -58 0 -59 0 4 -69 4
-69 -36 0 -36 0 0 154 0 154 36 0 36 0 -4 -55z m422 37 c102 -51 110 -200 14
-263 -45 -29 -124 -26 -164 7 -42 36 -60 74 -60 127 0 78 68 147 145 147 17 0
46 -8 65 -18z m-737 -83 c12 -7 24 -13 26 -15 2 -2 6 -43 8 -91 3 -56 11 -98
21 -115 25 -43 4 -57 -48 -33 -42 19 -42 19 -110 -9 -8 -3 -22 -2 -30 4 -12 8
-10 14 13 38 23 24 27 37 27 83 0 44 6 65 30 102 33 52 32 52 63 36z m208 -66
c0 -72 8 -132 18 -152 8 -14 4 -20 -25 -30 -28 -10 -38 -10 -50 0 -13 10 -13
14 1 29 15 17 23 68 24 153 1 35 5 47 16 47 11 0 15 -12 16 -47z m-443 -67 c3
-52 9 -69 28 -87 34 -32 30 -42 -15 -34 -33 5 -41 3 -55 -17 -9 -12 -16 -31
-16 -41 0 -17 -2 -17 -29 5 l-28 23 23 13 c37 20 44 44 44 149 l0 97 22 -22
c17 -16 23 -37 26 -86z m1127 22 c34 -15 31 -23 -10 -26 -29 -2 -35 1 -35 18
0 23 9 25 45 8z m-507 -49 c2 -19 13 -44 24 -56 17 -18 19 -25 8 -38 -11 -13
-15 -13 -33 0 -14 10 -25 11 -39 4 -30 -16 -41 0 -19 27 11 14 22 43 26 65 8
48 29 47 33 -2z m-843 -31 c24 11 26 10 32 -18 3 -17 18 -41 34 -54 l28 -24
-74 -4 c-52 -2 -79 -8 -93 -21 -18 -17 -20 -16 -46 4 l-27 21 30 19 c17 10 33
31 37 46 10 41 13 44 34 31 14 -9 25 -9 45 0z m1039 -20 l34 -22 -25 -19 c-21
-17 -28 -18 -48 -7 -13 7 -31 10 -40 6 -33 -12 -34 5 -2 34 39 36 39 36 81 8z
m206 -27 c5 -11 17 -27 26 -35 14 -15 13 -16 -9 -16 -13 0 -36 -9 -49 -20 -27
-21 -38 -18 -38 10 0 10 -7 23 -15 30 -22 18 -19 26 18 38 47 15 55 14 67 -7z
m-1012 -56 c-5 -22 -2 -25 23 -25 24 0 29 4 29 25 0 16 6 25 15 25 12 0 15
-14 15 -66 0 -57 -2 -65 -17 -62 -12 2 -17 11 -15 26 3 18 -1 22 -26 22 -26 0
-29 -3 -24 -25 3 -20 0 -25 -17 -25 -19 0 -21 5 -21 65 0 60 2 65 21 65 17 0
20 -5 17 -25z m232 5 c11 -11 20 -30 20 -42 0 -29 -38 -68 -67 -68 -30 0 -63
34 -63 65 0 14 9 34 20 45 11 11 31 20 45 20 14 0 34 -9 45 -20z m134 14 c9
-3 16 -13 16 -21 0 -11 -7 -13 -30 -8 -18 4 -30 2 -30 -3 0 -6 13 -13 29 -17
36 -8 44 -26 25 -54 -16 -23 -44 -27 -75 -10 -28 14 -14 29 21 22 39 -7 39 12
0 26 -19 6 -30 17 -30 28 0 36 34 52 74 37z m166 -9 c0 -8 -9 -15 -20 -15 -17
0 -20 -7 -20 -51 0 -42 -3 -50 -17 -47 -14 3 -17 12 -14 51 2 46 1 48 -20 45
-16 -2 -25 3 -27 15 -3 15 5 17 57 17 48 0 61 -3 61 -15z m70 -50 c0 -51 -3
-65 -15 -65 -12 0 -15 14 -15 65 0 51 3 65 15 65 12 0 15 -14 15 -65z m98 28
l33 -38 -6 38 c-5 31 -3 37 12 37 15 0 18 -9 18 -65 0 -36 -3 -65 -6 -65 -4 0
-21 16 -38 35 l-31 36 0 -36 c0 -24 -4 -35 -15 -35 -12 0 -15 14 -15 65 0 36
3 65 8 65 4 0 22 -17 40 -37z m193 27 c27 -15 24 -33 -5 -26 -35 9 -56 -3 -56
-30 0 -28 21 -40 48 -29 16 8 16 8 0 12 -29 7 -20 23 12 23 36 0 40 -20 10
-50 -24 -24 -48 -25 -78 -4 -28 19 -29 67 -2 94 22 22 42 25 71 10z m357 -12
c-7 -19 -43 -21 -58 -3 -11 13 -8 15 25 15 25 0 35 -4 33 -12z m-1358 -48 c0
-18 -7 -20 -78 -20 -66 0 -82 3 -97 20 -18 20 -17 20 78 20 90 0 97 -1 97 -20z
m1290 0 c-20 -16 -41 -20 -112 -20 -81 0 -88 2 -88 20 0 19 7 20 113 20 l112
0 -25 -20z m-1234 -61 c11 -13 31 -16 77 -15 34 1 67 5 74 9 6 4 26 -1 43 -12
l31 -19 -38 -7 c-21 -4 -44 -11 -50 -17 -16 -13 -17 -50 -1 -66 47 -47 -250
76 -302 124 -12 12 -8 14 28 14 49 0 111 23 113 42 1 7 4 2 6 -12 3 -14 11
-32 19 -41z m1110 9 l59 -3 -41 -27 c-60 -39 -250 -117 -286 -118 -4 0 -3 11
3 24 12 26 -2 65 -24 67 -102 7 -211 4 -232 -7 -21 -11 -27 -10 -40 2 -19 20
-19 21 8 54 l22 27 25 -29 c23 -27 28 -29 51 -18 19 9 32 9 45 2 12 -7 23 -6
35 1 13 8 24 8 42 0 20 -9 28 -8 41 5 15 15 18 15 45 -1 46 -27 79 -22 115 17
28 31 33 33 52 21 12 -8 48 -15 80 -17z m-626 -13 c0 -8 -4 -15 -10 -15 -5 0
-12 0 -15 0 -2 0 -16 -12 -30 -26 -21 -21 -28 -24 -41 -13 -8 7 -37 11 -65 10
-66 -2 -78 7 -39 30 28 18 33 18 60 4 40 -21 73 -19 95 5 21 24 45 26 45 5z
m34 -61 c21 -20 20 -43 -1 -66 -23 -25 -50 -23 -69 7 -15 23 -15 27 0 50 19
29 47 32 70 9z m-134 -24 c0 -19 -7 -20 -120 -20 -113 0 -120 1 -120 20 0 19
7 20 120 20 113 0 120 -1 120 -20z m450 0 c0 -19 -7 -20 -125 -20 -118 0 -125
1 -125 20 0 19 7 20 125 20 118 0 125 -1 125 -20z m-401 -61 c13 -17 20 -33
17 -37 -9 -8 -184 15 -236 31 l-45 15 100 1 c55 1 107 6 115 11 22 14 24 13
49 -21z m255 10 c52 -1 84 -5 79 -10 -14 -14 -167 -41 -214 -37 l-41 3 22 28
c17 21 29 27 44 23 12 -3 62 -6 110 -7z"/>
<path d="M840 2515 c-10 -12 -10 -18 0 -30 17 -21 54 -15 58 9 7 32 -36 48
-58 21z"/>
<path d="M1452 2588 c-18 -18 -15 -53 6 -71 27 -25 30 -22 28 33 -1 50 -11 61
-34 38z"/>
<path d="M1570 2575 c-19 -23 -8 -50 20 -50 16 0 26 6 28 18 4 18 -14 47 -28
47 -4 0 -13 -7 -20 -15z"/>
<path d="M2094 2365 c-9 -23 3 -45 26 -45 25 0 37 25 20 45 -16 19 -39 19 -46
0z"/>
<path d="M1590 2215 c0 -8 -10 -20 -22 -26 -41 -21 -68 -52 -68 -78 l1 -26 15
27 c19 37 48 50 119 57 l60 6 -40 28 c-44 30 -65 34 -65 12z"/>
<path d="M1592 2053 c-28 -5 -45 -37 -36 -66 18 -60 88 -92 140 -63 57 31 57
30 41 68 -25 59 -65 76 -145 61z m103 -43 c0 -23 -59 -20 -63 3 -3 15 2 18 30
15 21 -2 33 -8 33 -18z m-80 -12 c9 -20 17 -23 58 -21 47 1 48 1 31 -18 -27
-30 -77 -25 -108 12 -14 17 -26 35 -26 40 0 19 36 8 45 -13z"/>
<path d="M1316 1979 c-57 -38 -138 -69 -178 -69 -11 0 -17 -4 -13 -10 3 -5 11
-7 18 -5 7 2 32 6 56 9 53 7 121 40 169 83 51 45 20 40 -52 -8z"/>
<path d="M1431 1855 c0 -27 4 -57 9 -65 12 -19 12 66 0 95 -6 15 -9 7 -9 -30z"/>
<path d="M1384 1747 c3 -31 18 -94 33 -139 14 -46 32 -126 38 -178 l13 -95 1
72 c1 66 -5 99 -46 238 -22 75 -22 78 -7 102 12 19 11 23 -13 38 l-26 17 7
-55z"/>
<path d="M1496 1625 c-4 -16 -9 -36 -12 -43 -5 -18 20 -134 35 -157 10 -17 11
-12 5 30 -4 28 -10 84 -14 125 -5 62 -7 70 -14 45z"/>
<path d="M1536 1630 c4 -14 26 -59 50 -100 45 -79 67 -142 81 -225 l8 -50 3
45 c2 24 -2 65 -8 90 -14 57 -82 195 -116 235 -24 29 -25 29 -18 5z"/>
<path d="M1550 1421 c0 -17 5 -33 11 -36 5 -4 23 -36 39 -71 38 -82 57 -84 23
-1 -30 73 -61 137 -68 137 -3 0 -5 -13 -5 -29z"/>
<path d="M2522 1617 c-38 -40 -27 -102 21 -122 36 -15 82 -3 97 25 43 80 -57
162 -118 97z m82 -23 c19 -18 20 -28 6 -55 -20 -37 -80 -15 -80 30 0 14 29 41
45 41 7 0 21 -7 29 -16z"/>
<path d="M1907 847 c-38 -27 -38 -117 0 -144 20 -15 67 -17 92 -3 25 13 45 64
37 95 -14 57 -85 85 -129 52z m69 -35 c16 -11 23 -47 12 -66 -12 -21 -54 -21
-62 0 -19 48 13 91 50 66z"/>
<path d="M1220 516 c-27 -33 18 -72 48 -42 13 13 14 20 6 34 -15 23 -38 26
-54 8z"/>
<path d="M395 1615 c-31 -30 -32 -64 -4 -99 45 -57 152 -10 135 58 -16 65 -86
87 -131 41z m79 -18 c38 -27 -2 -95 -41 -71 -22 14 -29 50 -13 70 15 17 31 18
54 1z"/>
<path d="M2079 2919 c35 -16 66 -27 69 -24 3 2 -6 9 -19 14 -13 5 -41 16 -63
25 -64 27 -55 17 13 -15z"/>
<path d="M2180 2877 c0 -2 40 -27 89 -57 49 -29 122 -79 162 -111 75 -61 110
-81 49 -28 -58 51 -130 103 -212 152 -73 44 -88 52 -88 44z"/>
<path d="M2590 2565 c8 -11 38 -47 65 -81 28 -33 60 -74 73 -90 13 -16 20 -22
16 -14 -14 27 -121 165 -145 185 -23 20 -24 20 -9 0z"/>
<path d="M2756 2348 c37 -61 64 -100 64 -93 0 10 -60 105 -67 105 -2 0 -1 -6
3 -12z"/>
</g>
</svg>
